<svg width="2310" height="1911" xmlns="http://www.w3.org/2000/svg" xmlns:xlink="http://www.w3.org/1999/xlink" xml:space="preserve" overflow="hidden"><g transform="translate(-1086 -201)"><g><path d="M1978.5 267.835C1978.5 233.961 2005.96 206.5 2039.83 206.5L2419.17 206.5C2453.04 206.5 2480.5 233.961 2480.5 267.835L2480.5 513.165C2480.5 547.039 2453.04 574.5 2419.17 574.5L2039.83 574.5C2005.96 574.5 1978.5 547.039 1978.5 513.165Z" stroke="#042433" stroke-width="6.875" stroke-linecap="butt" stroke-linejoin="miter" stroke-miterlimit="8" stroke-opacity="1" fill="#215F9A" fill-rule="evenodd" fill-opacity="1"/><text fill="#FFFFFF" fill-opacity="1" font-family="Aptos,Aptos_MSFontService,sans-serif" font-style="normal" font-variant="normal" font-weight="400" font-stretch="normal" font-size="73" text-anchor="start" direction="ltr" writing-mode="lr-tb" unicode-bidi="normal" text-decoration="none" transform="matrix(1 0 0 1 2063.2 370)">25 Control</text><text fill="#0D0D0D" fill-opacity="1" font-family="Aptos,Aptos_MSFontService,sans-serif" font-style="normal" font-variant="normal" font-weight="400" font-stretch="normal" font-size="73" text-anchor="start" direction="ltr" writing-mode="lr-tb" unicode-bidi="normal" text-decoration="none" transform="matrix(1 0 0 1 2022.47 458)">30</text><text fill="#0D0D0D" fill-opacity="1" font-family="Aptos,Aptos_MSFontService,sans-serif" font-style="normal" font-variant="normal" font-weight="400" font-stretch="normal" font-size="73" text-anchor="start" direction="ltr" writing-mode="lr-tb" unicode-bidi="normal" text-decoration="none" transform="matrix(1 0 0 1 2115.29 458)">Treatmen</text><text fill="#0D0D0D" fill-opacity="1" font-family="Aptos,Aptos_MSFontService,sans-serif" font-style="normal" font-variant="normal" font-weight="400" font-stretch="normal" font-size="73" text-anchor="start" direction="ltr" writing-mode="lr-tb" unicode-bidi="normal" text-decoration="none" transform="matrix(1 0 0 1 2412.26 458)">t</text><path d="M0 0 445.331 411.244" stroke="#156082" stroke-width="6.875" stroke-linecap="butt" stroke-linejoin="miter" stroke-miterlimit="8" stroke-opacity="1" fill="none" fill-rule="evenodd" transform="matrix(-1 0 0 1 2229.83 574.5)"/><path d="M2229.5 574.5 2675 987" stroke="#156082" stroke-width="6.875" stroke-linecap="butt" stroke-linejoin="miter" stroke-miterlimit="8" stroke-opacity="1" fill="none" fill-rule="evenodd"/><path d="M1533.5 1047.67C1533.5 1013.89 1560.89 986.5 1594.67 986.5L1974.33 986.5C2008.11 986.5 2035.5 1013.89 2035.5 1047.67L2035.5 1292.33C2035.5 1326.11 2008.11 1353.5 1974.33 1353.5L1594.67 1353.5C1560.89 1353.5 1533.5 1326.11 1533.5 1292.33Z" stroke="#042433" stroke-width="6.875" stroke-linecap="butt" stroke-linejoin="miter" stroke-miterlimit="8" stroke-opacity="1" fill="#215F9A" fill-rule="evenodd" fill-opacity="1"/><text fill="#FFFFFF" fill-opacity="1" font-family="Aptos,Aptos_MSFontService,sans-serif" font-style="normal" font-variant="normal" font-weight="400" font-stretch="normal" font-size="73" text-anchor="start" direction="ltr" writing-mode="lr-tb" unicode-bidi="normal" text-decoration="none" transform="matrix(1 0 0 1 1617.87 1149)">20 Control</text><text fill="#0D0D0D" fill-opacity="1" font-family="Aptos,Aptos_MSFontService,sans-serif" font-style="normal" font-variant="normal" font-weight="400" font-stretch="normal" font-size="73" text-anchor="start" direction="ltr" writing-mode="lr-tb" unicode-bidi="normal" text-decoration="none" transform="matrix(1 0 0 1 1577.14 1237)">10 Treatmen</text><text fill="#0D0D0D" fill-opacity="1" font-family="Aptos,Aptos_MSFontService,sans-serif" font-style="normal" font-variant="normal" font-weight="400" font-stretch="normal" font-size="73" text-anchor="start" direction="ltr" writing-mode="lr-tb" unicode-bidi="normal" text-decoration="none" transform="matrix(1 0 0 1 1966.93 1237)">t</text><path d="M2423.5 1047.67C2423.5 1013.89 2450.89 986.5 2484.67 986.5L2864.33 986.5C2898.11 986.5 2925.5 1013.89 2925.5 1047.67L2925.5 1292.33C2925.5 1326.11 2898.11 1353.5 2864.33 1353.5L2484.67 1353.5C2450.89 1353.5 2423.5 1326.11 2423.5 1292.33Z" stroke="#042433" stroke-width="6.875" stroke-linecap="butt" stroke-linejoin="miter" stroke-miterlimit="8" stroke-opacity="1" fill="#215F9A" fill-rule="evenodd" fill-opacity="1"/><text fill="#FFFFFF" fill-opacity="1" font-family="Aptos,Aptos_MSFontService,sans-serif" font-style="normal" font-variant="normal" font-weight="400" font-stretch="normal" font-size="73" text-anchor="start" direction="ltr" writing-mode="lr-tb" unicode-bidi="normal" text-decoration="none" transform="matrix(1 0 0 1 2528.01 1149)">5 Control</text><text fill="#0D0D0D" fill-opacity="1" font-family="Aptos,Aptos_MSFontService,sans-serif" font-style="normal" font-variant="normal" font-weight="400" font-stretch="normal" font-size="73" text-anchor="start" direction="ltr" writing-mode="lr-tb" unicode-bidi="normal" text-decoration="none" transform="matrix(1 0 0 1 2467.81 1237)">2</text><text fill="#0D0D0D" fill-opacity="1" font-family="Aptos,Aptos_MSFontService,sans-serif" font-style="normal" font-variant="normal" font-weight="400" font-stretch="normal" font-size="73" text-anchor="start" direction="ltr" writing-mode="lr-tb" unicode-bidi="normal" text-decoration="none" transform="matrix(1 0 0 1 2506.76 1237)">0 Treatmen</text><text fill="#0D0D0D" fill-opacity="1" font-family="Aptos,Aptos_MSFontService,sans-serif" font-style="normal" font-variant="normal" font-weight="400" font-stretch="normal" font-size="73" text-anchor="start" direction="ltr" writing-mode="lr-tb" unicode-bidi="normal" text-decoration="none" transform="matrix(1 0 0 1 2857.59 1237)">t</text><path d="M1481.5 753.667C1481.5 741.425 1491.42 731.5 1503.67 731.5L2153.33 731.5C2165.58 731.5 2175.5 741.425 2175.5 753.667L2175.5 842.333C2175.5 854.575 2165.58 864.5 2153.33 864.5L1503.67 864.5C1491.42 864.5 1481.5 854.575 1481.5 842.333Z" stroke="#042433" stroke-width="6.875" stroke-linecap="butt" stroke-linejoin="miter" stroke-miterlimit="8" stroke-opacity="1" fill="#13501B" fill-rule="evenodd" fill-opacity="1"/><text fill="#FFFFFF" fill-opacity="1" font-family="Aptos,Aptos_MSFontService,sans-serif" font-style="normal" font-variant="normal" font-weight="400" font-stretch="normal" font-size="73" text-anchor="start" direction="ltr" writing-mode="lr-tb" unicode-bidi="normal" text-decoration="none" transform="matrix(1 0 0 1 1558.53 821)">Metabolite 1 &gt; 10</text><path d="M2269.5 753.667C2269.5 741.425 2279.42 731.5 2291.67 731.5L2941.33 731.5C2953.58 731.5 2963.5 741.425 2963.5 753.667L2963.5 842.333C2963.5 854.575 2953.58 864.5 2941.33 864.5L2291.67 864.5C2279.42 864.5 2269.5 854.575 2269.5 842.333Z" stroke="#042433" stroke-width="6.875" stroke-linecap="butt" stroke-linejoin="miter" stroke-miterlimit="8" stroke-opacity="1" fill="#13501B" fill-rule="evenodd" fill-opacity="1"/><text fill="#FFFFFF" fill-opacity="1" font-family="Aptos,Aptos_MSFontService,sans-serif" font-style="normal" font-variant="normal" font-weight="400" font-stretch="normal" font-size="73" text-anchor="start" direction="ltr" writing-mode="lr-tb" unicode-bidi="normal" text-decoration="none" transform="matrix(1 0 0 1 2346.62 821)">Metabolite 1 ≤ 10</text><path d="M0 0 342.019 374.826" stroke="#156082" stroke-width="6.875" stroke-linecap="butt" stroke-linejoin="miter" stroke-miterlimit="8" stroke-opacity="1" fill="none" fill-rule="evenodd" transform="matrix(-1 0 0 1 1685.52 1362.5)"/><path d="M1776.5 1353.5 1941.15 1733.53" stroke="#156082" stroke-width="6.875" stroke-linecap="butt" stroke-linejoin="miter" stroke-miterlimit="8" stroke-opacity="1" fill="none" fill-rule="evenodd"/><path d="M1092.5 1798.83C1092.5 1764.96 1119.96 1737.5 1153.83 1737.5L1533.17 1737.5C1567.04 1737.5 1594.5 1764.96 1594.5 1798.83L1594.5 2044.17C1594.5 2078.04 1567.04 2105.5 1533.17 2105.5L1153.83 2105.5C1119.96 2105.5 1092.5 2078.04 1092.5 2044.17Z" stroke="#042433" stroke-width="6.875" stroke-linecap="butt" stroke-linejoin="miter" stroke-miterlimit="8" stroke-opacity="1" fill="#215F9A" fill-rule="evenodd" fill-opacity="1"/><text fill="#FFFFFF" fill-opacity="1" font-family="Aptos,Aptos_MSFontService,sans-serif" font-style="normal" font-variant="normal" font-weight="400" font-stretch="normal" font-size="73" text-anchor="start" direction="ltr" writing-mode="lr-tb" unicode-bidi="normal" text-decoration="none" transform="matrix(1 0 0 1 1177.17 1901)">20 Control</text><text fill="#0D0D0D" fill-opacity="1" font-family="Aptos,Aptos_MSFontService,sans-serif" font-style="normal" font-variant="normal" font-weight="400" font-stretch="normal" font-size="73" text-anchor="start" direction="ltr" writing-mode="lr-tb" unicode-bidi="normal" text-decoration="none" transform="matrix(1 0 0 1 1155.93 1989)">0 Treatmen</text><text fill="#0D0D0D" fill-opacity="1" font-family="Aptos,Aptos_MSFontService,sans-serif" font-style="normal" font-variant="normal" font-weight="400" font-stretch="normal" font-size="73" text-anchor="start" direction="ltr" writing-mode="lr-tb" unicode-bidi="normal" text-decoration="none" transform="matrix(1 0 0 1 1506.76 1989)">t</text><path d="M1689.5 1794.83C1689.5 1760.96 1716.96 1733.5 1750.83 1733.5L2130.17 1733.5C2164.04 1733.5 2191.5 1760.96 2191.5 1794.83L2191.5 2040.17C2191.5 2074.04 2164.04 2101.5 2130.17 2101.5L1750.83 2101.5C1716.96 2101.5 1689.5 2074.04 1689.5 2040.17Z" stroke="#042433" stroke-width="6.875" stroke-linecap="butt" stroke-linejoin="miter" stroke-miterlimit="8" stroke-opacity="1" fill="#215F9A" fill-rule="evenodd" fill-opacity="1"/><text fill="#FFFFFF" fill-opacity="1" font-family="Aptos,Aptos_MSFontService,sans-serif" font-style="normal" font-variant="normal" font-weight="400" font-stretch="normal" font-size="73" text-anchor="start" direction="ltr" writing-mode="lr-tb" unicode-bidi="normal" text-decoration="none" transform="matrix(1 0 0 1 1793.93 1897)">0 Control</text><text fill="#0D0D0D" fill-opacity="1" font-family="Aptos,Aptos_MSFontService,sans-serif" font-style="normal" font-variant="normal" font-weight="400" font-stretch="normal" font-size="73" text-anchor="start" direction="ltr" writing-mode="lr-tb" unicode-bidi="normal" text-decoration="none" transform="matrix(1 0 0 1 1733.73 1985)">10 Treatmen</text><text fill="#0D0D0D" fill-opacity="1" font-family="Aptos,Aptos_MSFontService,sans-serif" font-style="normal" font-variant="normal" font-weight="400" font-stretch="normal" font-size="73" text-anchor="start" direction="ltr" writing-mode="lr-tb" unicode-bidi="normal" text-decoration="none" transform="matrix(1 0 0 1 2123.52 1985)">t</text><path d="M0 0 144.743 383.246" stroke="#156082" stroke-width="6.875" stroke-linecap="butt" stroke-linejoin="miter" stroke-miterlimit="8" stroke-opacity="1" fill="none" fill-rule="evenodd" transform="matrix(-1 0 0 1 2683.24 1355.5)"/><path d="M2773.5 1347.5 3135.42 1737.2" stroke="#156082" stroke-width="6.875" stroke-linecap="butt" stroke-linejoin="miter" stroke-miterlimit="8" stroke-opacity="1" fill="none" fill-rule="evenodd"/><path d="M2287.5 1800.83C2287.5 1766.96 2314.96 1739.5 2348.83 1739.5L2728.17 1739.5C2762.04 1739.5 2789.5 1766.96 2789.5 1800.83L2789.5 2046.16C2789.5 2080.04 2762.04 2107.5 2728.17 2107.5L2348.83 2107.5C2314.96 2107.5 2287.5 2080.04 2287.5 2046.16Z" stroke="#042433" stroke-width="6.875" stroke-linecap="butt" stroke-linejoin="miter" stroke-miterlimit="8" stroke-opacity="1" fill="#215F9A" fill-rule="evenodd" fill-opacity="1"/><text fill="#FFFFFF" fill-opacity="1" font-family="Aptos,Aptos_MSFontService,sans-serif" font-style="normal" font-variant="normal" font-weight="400" font-stretch="normal" font-size="73" text-anchor="start" direction="ltr" writing-mode="lr-tb" unicode-bidi="normal" text-decoration="none" transform="matrix(1 0 0 1 2391.21 1903)">5 Control</text><text fill="#0D0D0D" fill-opacity="1" font-family="Aptos,Aptos_MSFontService,sans-serif" font-style="normal" font-variant="normal" font-weight="400" font-stretch="normal" font-size="73" text-anchor="start" direction="ltr" writing-mode="lr-tb" unicode-bidi="normal" text-decoration="none" transform="matrix(1 0 0 1 2350.49 1991)">0 Treatmen</text><text fill="#0D0D0D" fill-opacity="1" font-family="Aptos,Aptos_MSFontService,sans-serif" font-style="normal" font-variant="normal" font-weight="400" font-stretch="normal" font-size="73" text-anchor="start" direction="ltr" writing-mode="lr-tb" unicode-bidi="normal" text-decoration="none" transform="matrix(1 0 0 1 2701.32 1991)">t</text><path d="M2884.5 1798.83C2884.5 1764.96 2911.96 1737.5 2945.83 1737.5L3325.17 1737.5C3359.04 1737.5 3386.5 1764.96 3386.5 1798.83L3386.5 2044.17C3386.5 2078.04 3359.04 2105.5 3325.17 2105.5L2945.83 2105.5C2911.96 2105.5 2884.5 2078.04 2884.5 2044.17Z" stroke="#042433" stroke-width="6.875" stroke-linecap="butt" stroke-linejoin="miter" stroke-miterlimit="8" stroke-opacity="1" fill="#215F9A" fill-rule="evenodd" fill-opacity="1"/><text fill="#FFFFFF" fill-opacity="1" font-family="Aptos,Aptos_MSFontService,sans-serif" font-style="normal" font-variant="normal" font-weight="400" font-stretch="normal" font-size="73" text-anchor="start" direction="ltr" writing-mode="lr-tb" unicode-bidi="normal" text-decoration="none" transform="matrix(1 0 0 1 2988.49 1901)">0 Control</text><text fill="#0D0D0D" fill-opacity="1" font-family="Aptos,Aptos_MSFontService,sans-serif" font-style="normal" font-variant="normal" font-weight="400" font-stretch="normal" font-size="73" text-anchor="start" direction="ltr" writing-mode="lr-tb" unicode-bidi="normal" text-decoration="none" transform="matrix(1 0 0 1 2928.28 1989)">20 Treatmen</text><text fill="#0D0D0D" fill-opacity="1" font-family="Aptos,Aptos_MSFontService,sans-serif" font-style="normal" font-variant="normal" font-weight="400" font-stretch="normal" font-size="73" text-anchor="start" direction="ltr" writing-mode="lr-tb" unicode-bidi="normal" text-decoration="none" transform="matrix(1 0 0 1 3318.07 1989)">t</text><path d="M1189.5 1475C1189.5 1458.16 1203.16 1444.5 1220 1444.5L1673 1444.5C1689.84 1444.5 1703.5 1458.16 1703.5 1475L1703.5 1597C1703.5 1613.84 1689.84 1627.5 1673 1627.5L1220 1627.5C1203.16 1627.5 1189.5 1613.84 1189.5 1597Z" stroke="#042433" stroke-width="6.875" stroke-linecap="butt" stroke-linejoin="miter" stroke-miterlimit="8" stroke-opacity="1" fill="#13501B" fill-rule="evenodd" fill-opacity="1"/><text fill="#FFFFFF" fill-opacity="1" font-family="Aptos,Aptos_MSFontService,sans-serif" font-style="normal" font-variant="normal" font-weight="400" font-stretch="normal" font-size="73" text-anchor="start" direction="ltr" writing-mode="lr-tb" unicode-bidi="normal" text-decoration="none" transform="matrix(1 0 0 1 1249.55 1516)">Metabolite 2 </text><text fill="#FFFFFF" fill-opacity="1" font-family="Aptos,Aptos_MSFontService,sans-serif" font-style="normal" font-variant="normal" font-weight="400" font-stretch="normal" font-size="73" text-anchor="start" direction="ltr" writing-mode="lr-tb" unicode-bidi="normal" text-decoration="none" transform="matrix(1 0 0 1 1399.31 1604)">&gt; 5</text><path d="M1755.5 1475C1755.5 1458.16 1769.16 1444.5 1786 1444.5L2239 1444.5C2255.84 1444.5 2269.5 1458.16 2269.5 1475L2269.5 1597C2269.5 1613.84 2255.84 1627.5 2239 1627.5L1786 1627.5C1769.16 1627.5 1755.5 1613.84 1755.5 1597Z" stroke="#042433" stroke-width="6.875" stroke-linecap="butt" stroke-linejoin="miter" stroke-miterlimit="8" stroke-opacity="1" fill="#13501B" fill-rule="evenodd" fill-opacity="1"/><text fill="#FFFFFF" fill-opacity="1" font-family="Aptos,Aptos_MSFontService,sans-serif" font-style="normal" font-variant="normal" font-weight="400" font-stretch="normal" font-size="73" text-anchor="start" direction="ltr" writing-mode="lr-tb" unicode-bidi="normal" text-decoration="none" transform="matrix(1 0 0 1 1815.71 1516)">Metabolite 2 </text><text fill="#FFFFFF" fill-opacity="1" font-family="Aptos,Aptos_MSFontService,sans-serif" font-style="normal" font-variant="normal" font-weight="400" font-stretch="normal" font-size="73" text-anchor="start" direction="ltr" writing-mode="lr-tb" unicode-bidi="normal" text-decoration="none" transform="matrix(1 0 0 1 1965.47 1604)">≤ 5</text><path d="M2312.5 1472C2312.5 1455.16 2326.16 1441.5 2343 1441.5L2796 1441.5C2812.84 1441.5 2826.5 1455.16 2826.5 1472L2826.5 1594C2826.5 1610.84 2812.84 1624.5 2796 1624.5L2343 1624.5C2326.16 1624.5 2312.5 1610.84 2312.5 1594Z" stroke="#042433" stroke-width="6.875" stroke-linecap="butt" stroke-linejoin="miter" stroke-miterlimit="8" stroke-opacity="1" fill="#13501B" fill-rule="evenodd" fill-opacity="1"/><text fill="#FFFFFF" fill-opacity="1" font-family="Aptos,Aptos_MSFontService,sans-serif" font-style="normal" font-variant="normal" font-weight="400" font-stretch="normal" font-size="73" text-anchor="start" direction="ltr" writing-mode="lr-tb" unicode-bidi="normal" text-decoration="none" transform="matrix(1 0 0 1 2372.8 1512)">Metabolite 3 </text><text fill="#FFFFFF" fill-opacity="1" font-family="Aptos,Aptos_MSFontService,sans-serif" font-style="normal" font-variant="normal" font-weight="400" font-stretch="normal" font-size="73" text-anchor="start" direction="ltr" writing-mode="lr-tb" unicode-bidi="normal" text-decoration="none" transform="matrix(1 0 0 1 2503.08 1600)">&gt; 17</text><path d="M2878.5 1472C2878.5 1455.16 2892.16 1441.5 2909 1441.5L3362 1441.5C3378.84 1441.5 3392.5 1455.16 3392.5 1472L3392.5 1594C3392.5 1610.84 3378.84 1624.5 3362 1624.5L2909 1624.5C2892.16 1624.5 2878.5 1610.84 2878.5 1594Z" stroke="#042433" stroke-width="6.875" stroke-linecap="butt" stroke-linejoin="miter" stroke-miterlimit="8" stroke-opacity="1" fill="#13501B" fill-rule="evenodd" fill-opacity="1"/><text fill="#FFFFFF" fill-opacity="1" font-family="Aptos,Aptos_MSFontService,sans-serif" font-style="normal" font-variant="normal" font-weight="400" font-stretch="normal" font-size="73" text-anchor="start" direction="ltr" writing-mode="lr-tb" unicode-bidi="normal" text-decoration="none" transform="matrix(1 0 0 1 2938.96 1512)">Metabolite 3 </text><text fill="#FFFFFF" fill-opacity="1" font-family="Aptos,Aptos_MSFontService,sans-serif" font-style="normal" font-variant="normal" font-weight="400" font-stretch="normal" font-size="73" text-anchor="start" direction="ltr" writing-mode="lr-tb" unicode-bidi="normal" text-decoration="none" transform="matrix(1 0 0 1 3069.24 1600)">≤ 17</text></g></g></svg>